<?plantuml 1.2026.1?><svg xmlns="http://www.w3.org/2000/svg" xmlns:xlink="http://www.w3.org/1999/xlink" contentStyleType="text/css" data-diagram-type="DESCRIPTION" height="572px" preserveAspectRatio="none" style="width:538px;height:572px;background:#FFFFFF;" version="1.1" viewBox="0 0 538 572" width="538px" zoomAndPan="magnify"><defs/><g><!--cluster OrderMgtSystem--><g class="cluster" data-qualified-name="OrderMgtSystem" data-source-line="8" id="ent0004"><rect fill="none" height="466" rx="2.5" ry="2.5" style="stroke:#181818;stroke-width:1;" width="440.41" x="91.64" y="7"/><text fill="#000000" font-family="sans-serif" font-size="14" font-weight="bold" lengthAdjust="spacing" textLength="134.1895" x="244.7503" y="21.9951">OrderMgtSystem</text></g><!--entity UC1--><g class="entity" data-qualified-name="OrderMgtSystem.UC1" data-source-line="9" id="ent0005"><ellipse cx="169.9416" cy="314.0003" fill="#F1F1F1" rx="62.3016" ry="14.8603" style="stroke:#181818;stroke-width:0.5;"/><text fill="#000000" font-family="sans-serif" font-size="14" lengthAdjust="spacing" textLength="86.1801" x="126.8515" y="318.6488">&#49345;&#54408; &#47785;&#47197; &#51312;&#54924;</text></g><!--entity UC2--><g class="entity" data-qualified-name="OrderMgtSystem.UC2" data-source-line="10" id="ent0006"><ellipse cx="169.9416" cy="249.0003" fill="#F1F1F1" rx="62.3016" ry="14.8603" style="stroke:#181818;stroke-width:0.5;"/><text fill="#000000" font-family="sans-serif" font-size="14" lengthAdjust="spacing" textLength="86.1801" x="126.8515" y="253.6488">&#49345;&#54408; &#49345;&#49464; &#51312;&#54924;</text></g><!--entity UC3--><g class="entity" data-qualified-name="OrderMgtSystem.UC3" data-source-line="11" id="ent0007"><ellipse cx="169.9367" cy="378.0036" fill="#F1F1F1" rx="42.5767" ry="14.5236" style="stroke:#181818;stroke-width:0.5;"/><text fill="#000000" font-family="sans-serif" font-size="14" lengthAdjust="spacing" textLength="55.97" x="141.9518" y="382.6521">&#51116;&#44256; &#51312;&#54924;</text></g><!--entity UC4--><g class="entity" data-qualified-name="OrderMgtSystem.UC4" data-source-line="12" id="ent0008"><ellipse cx="169.9367" cy="57.0036" fill="#F1F1F1" rx="42.5767" ry="14.5236" style="stroke:#181818;stroke-width:0.5;"/><text fill="#000000" font-family="sans-serif" font-size="14" lengthAdjust="spacing" textLength="55.97" x="141.9518" y="61.6521">&#51452;&#47928; &#49373;&#49457;</text></g><!--entity UC5--><g class="entity" data-qualified-name="OrderMgtSystem.UC5" data-source-line="13" id="ent0009"><ellipse cx="169.9367" cy="121.0036" fill="#F1F1F1" rx="42.5767" ry="14.5236" style="stroke:#181818;stroke-width:0.5;"/><text fill="#000000" font-family="sans-serif" font-size="14" lengthAdjust="spacing" textLength="55.97" x="141.9518" y="125.6521">&#51452;&#47928; &#51312;&#54924;</text></g><!--entity UC6--><g class="entity" data-qualified-name="OrderMgtSystem.UC6" data-source-line="14" id="ent0010"><ellipse cx="169.9367" cy="185.0036" fill="#F1F1F1" rx="42.5767" ry="14.5236" style="stroke:#181818;stroke-width:0.5;"/><text fill="#000000" font-family="sans-serif" font-size="14" lengthAdjust="spacing" textLength="55.97" x="141.9518" y="189.6521">&#51452;&#47928; &#52712;&#49548;</text></g><!--entity UC7--><g class="entity" data-qualified-name="OrderMgtSystem.UC7" data-source-line="15" id="ent0011"><ellipse cx="169.9367" cy="442.0036" fill="#F1F1F1" rx="42.5767" ry="14.5236" style="stroke:#181818;stroke-width:0.5;"/><text fill="#000000" font-family="sans-serif" font-size="14" lengthAdjust="spacing" textLength="55.97" x="141.9518" y="446.6521">&#49345;&#54408; &#46321;&#47197;</text></g><!--entity I1--><g class="entity" data-qualified-name="OrderMgtSystem.I1" data-source-line="17" id="ent0012"><ellipse cx="436.6467" cy="121.0036" fill="#F1F1F1" rx="42.5767" ry="14.5236" style="stroke:#181818;stroke-width:0.5;"/><text fill="#000000" font-family="sans-serif" font-size="14" lengthAdjust="spacing" textLength="55.97" x="408.6618" y="125.6521">&#51116;&#44256; &#52264;&#44048;</text></g><!--entity I2--><g class="entity" data-qualified-name="OrderMgtSystem.I2" data-source-line="18" id="ent0013"><ellipse cx="436.6467" cy="257.0036" fill="#F1F1F1" rx="42.5767" ry="14.5236" style="stroke:#181818;stroke-width:0.5;"/><text fill="#000000" font-family="sans-serif" font-size="14" lengthAdjust="spacing" textLength="55.97" x="408.6618" y="261.6521">&#51116;&#44256; &#48373;&#50896;</text></g><!--entity E1--><g class="entity" data-qualified-name="OrderMgtSystem.E1" data-source-line="19" id="ent0014"><ellipse cx="436.6516" cy="57.0003" fill="#F1F1F1" rx="62.3016" ry="14.8603" style="stroke:#181818;stroke-width:0.5;"/><text fill="#000000" font-family="sans-serif" font-size="14" lengthAdjust="spacing" textLength="86.1801" x="393.5615" y="61.6488">&#51116;&#44256; &#48512;&#51313; &#52376;&#47532;</text></g><!--entity E2--><g class="entity" data-qualified-name="OrderMgtSystem.E2" data-source-line="20" id="ent0015"><ellipse cx="436.6543" cy="189.0009" fill="#F1F1F1" rx="79.4043" ry="18.2809" style="stroke:#181818;stroke-width:0.5;"/><text fill="#000000" font-family="sans-serif" font-size="14" lengthAdjust="spacing" textLength="129.2701" x="372.0192" y="193.6493">&#51060;&#48120; &#52712;&#49548;&#46108; &#51452;&#47928; &#52376;&#47532;</text></g><!--entity Customer--><g class="entity" data-qualified-name="Customer" data-source-line="5" id="ent0002"><ellipse cx="25.3199" cy="176.35" fill="#F1F1F1" rx="8" ry="8" style="stroke:#181818;stroke-width:0.5;"/><path d="M25.3199,184.35 L25.3199,211.35 M12.3199,192.35 L38.3199,192.35 M25.3199,211.35 L12.3199,226.35 M25.3199,211.35 L38.3199,226.35" fill="none" style="stroke:#181818;stroke-width:0.5;"/><text fill="#000000" font-family="sans-serif" font-size="14" lengthAdjust="spacing" textLength="38.6398" x="6" y="240.8451">&#49324;&#50857;&#51088;</text></g><!--entity Admin--><g class="entity" data-qualified-name="Admin" data-source-line="6" id="ent0003"><ellipse cx="25.3199" cy="360.35" fill="#F1F1F1" rx="8" ry="8" style="stroke:#181818;stroke-width:0.5;"/><path d="M25.3199,368.35 L25.3199,395.35 M12.3199,376.35 L38.3199,376.35 M25.3199,395.35 L12.3199,410.35 M25.3199,395.35 L38.3199,410.35" fill="none" style="stroke:#181818;stroke-width:0.5;"/><text fill="#000000" font-family="sans-serif" font-size="14" lengthAdjust="spacing" textLength="38.6398" x="6" y="424.8451">&#44288;&#47532;&#51088;</text></g><!--link Customer to UC1--><g class="link" data-entity-1="ent0002" data-entity-2="ent0005" data-link-type="dependency" data-source-line="23" id="lnk16"><path d="M45.1,238.14 C55.01,252.84 68.3,269.49 83.64,281 C96.47,290.62 106.7896,295.8002 121.4396,300.9502" fill="none" id="Customer-to-UC1" style="stroke:#181818;stroke-width:1;"/><polygon fill="#181818" points="127.1,302.94,119.9359,296.1816,122.383,301.2818,117.2828,303.7289,127.1,302.94" style="stroke:#181818;stroke-width:1;"/></g><!--link Customer to UC2--><g class="link" data-entity-1="ent0002" data-entity-2="ent0006" data-link-type="dependency" data-source-line="24" id="lnk17"><path d="M44.97,211.62 C66.41,218.09 96.4654,227.1481 124.0954,235.4781" fill="none" id="Customer-to-UC2" style="stroke:#181818;stroke-width:1;"/><polygon fill="#181818" points="129.84,237.21,122.3777,230.7824,125.0528,235.7667,120.0685,238.4419,129.84,237.21" style="stroke:#181818;stroke-width:1;"/></g><!--link Customer to UC3--><g class="link" data-entity-1="ent0002" data-entity-2="ent0007" data-link-type="dependency" data-source-line="25" id="lnk18"><path d="M33.27,244.64 C40.75,275.79 55.56,318.74 83.64,346 C96.69,358.67 109.4597,364.7658 125.9197,369.4558" fill="none" id="Customer-to-UC3" style="stroke:#181818;stroke-width:1;"/><polygon fill="#181818" points="131.69,371.1,124.1306,364.7869,126.8814,369.7299,121.9384,372.4806,131.69,371.1" style="stroke:#181818;stroke-width:1;"/></g><!--link Customer to UC4--><g class="link" data-entity-1="ent0002" data-entity-2="ent0008" data-link-type="dependency" data-source-line="26" id="lnk19"><path d="M36.99,167.44 C45.78,142.11 60.61,109.9 83.64,89 C97.23,76.67 110.2454,70.604 126.7354,65.844" fill="none" id="Customer-to-UC4" style="stroke:#181818;stroke-width:1;"/><polygon fill="#181818" points="132.5,64.18,122.7437,62.8329,127.6961,65.5667,124.9624,70.5191,132.5,64.18" style="stroke:#181818;stroke-width:1;"/></g><!--link Customer to UC5--><g class="link" data-entity-1="ent0002" data-entity-2="ent0009" data-link-type="dependency" data-source-line="27" id="lnk20"><path d="M44.91,185.29 C55.44,174.53 69.33,161.82 83.64,153 C99.8,143.04 113.8418,137.2283 130.2718,131.9083" fill="none" id="Customer-to-UC5" style="stroke:#181818;stroke-width:1;"/><polygon fill="#181818" points="135.98,130.06,126.1855,129.027,131.2232,131.6003,128.6499,136.6379,135.98,130.06" style="stroke:#181818;stroke-width:1;"/></g><!--link Customer to UC6--><g class="link" data-entity-1="ent0002" data-entity-2="ent0010" data-link-type="dependency" data-source-line="28" id="lnk21"><path d="M44.97,203.25 C66.48,200.09 96.5242,195.6652 124.1942,191.5852" fill="none" id="Customer-to-UC6" style="stroke:#181818;stroke-width:1;"/><polygon fill="#181818" points="130.13,190.71,120.6428,188.0657,125.1835,191.4394,121.8098,195.9801,130.13,190.71" style="stroke:#181818;stroke-width:1;"/></g><!--link Admin to UC7--><g class="link" data-entity-1="ent0003" data-entity-2="ent0011" data-link-type="dependency" data-source-line="30" id="lnk22"><path d="M44.97,396.8 C69.13,405.61 105.8727,419.0056 134.2727,429.3556" fill="none" id="Admin-to-UC7" style="stroke:#181818;stroke-width:1;"/><polygon fill="#181818" points="139.91,431.41,132.8237,424.5701,135.2122,429.698,130.0844,432.0865,139.91,431.41" style="stroke:#181818;stroke-width:1;"/></g><!--link Admin to UC1--><g class="link" data-entity-1="ent0003" data-entity-2="ent0005" data-link-type="dependency" data-source-line="31" id="lnk23"><path d="M44.96,373.42 C55.72,364.45 69.82,353.67 83.64,346 C98.16,337.94 109.4601,333.1014 124.4101,327.8414" fill="none" id="Admin-to-UC1" style="stroke:#181818;stroke-width:1;"/><polygon fill="#181818" points="130.07,325.85,120.2526,325.0638,125.3534,327.5095,122.9077,332.6103,130.07,325.85" style="stroke:#181818;stroke-width:1;"/></g><!--link Admin to UC3--><g class="link" data-entity-1="ent0003" data-entity-2="ent0007" data-link-type="dependency" data-source-line="32" id="lnk24"><path d="M44.97,388.43 C65.96,386.67 94.7211,384.2422 122.1011,381.9422" fill="none" id="Admin-to-UC3" style="stroke:#181818;stroke-width:1;"/><polygon fill="#181818" points="128.08,381.44,118.7768,378.2074,123.0975,381.8585,119.4464,386.1793,128.08,381.44" style="stroke:#181818;stroke-width:1;"/></g><!--link UC4 to I1--><g class="link" data-entity-1="ent0008" data-entity-2="ent0012" data-link-type="dependency" data-source-line="34" id="lnk25"><path d="M203.38,66.27 C220.79,71.15 242.63,77.11 262.24,82 C309.55,93.79 358.6531,104.6232 393.8031,112.1532" fill="none" id="UC4-to-I1" style="stroke:#2563EB;stroke-width:1;stroke-dasharray:7,7;"/><polygon fill="#2563EB" points="399.67,113.41,391.7076,107.6135,394.7809,112.3626,390.0318,115.436,399.67,113.41" style="stroke:#2563EB;stroke-width:1;"/><text fill="#000000" font-family="sans-serif" font-size="13" lengthAdjust="spacing" textLength="63.0068" x="263.24" y="78.0669">&#171;include&#187;</text></g><!--link UC6 to I2--><g class="link" data-entity-1="ent0010" data-entity-2="ent0013" data-link-type="dependency" data-source-line="35" id="lnk26"><path d="M202.1,194.97 C219.69,200.5 242.13,207.37 262.24,213 C310.1,226.4 360.0382,238.8294 395.1382,247.3194" fill="none" id="UC6-to-I2" style="stroke:#2563EB;stroke-width:1;stroke-dasharray:7,7;"/><polygon fill="#2563EB" points="400.97,248.73,393.1627,242.7262,396.1101,247.5545,391.2819,250.502,400.97,248.73" style="stroke:#2563EB;stroke-width:1;"/><text fill="#000000" font-family="sans-serif" font-size="13" lengthAdjust="spacing" textLength="63.0068" x="263.24" y="209.0669">&#171;include&#187;</text></g><!--link UC4 to E1--><g class="link" data-entity-1="ent0008" data-entity-2="ent0014" data-link-type="dependency" data-source-line="37" id="lnk27"><path d="M212.88,57 C256.33,57 318.66,57 368.2,57" fill="none" id="UC4-to-E1" style="stroke:#DC2626;stroke-width:1;stroke-dasharray:7,7;"/><polygon fill="#DC2626" points="374.2,57,365.2,53,369.2,57,365.2,61,374.2,57" style="stroke:#DC2626;stroke-width:1;"/><text fill="#000000" font-family="sans-serif" font-size="13" lengthAdjust="spacing" textLength="61.1851" x="264.24" y="53.0669">&#171;extend&#187;</text></g><!--link UC6 to E2--><g class="link" data-entity-1="ent0010" data-entity-2="ent0015" data-link-type="dependency" data-source-line="38" id="lnk28"><path d="M212.88,185.63 C251.52,186.22 303.8307,187.0099 351.1107,187.7199" fill="none" id="UC6-to-E2" style="stroke:#DC2626;stroke-width:1;stroke-dasharray:7,7;"/><polygon fill="#DC2626" points="357.11,187.81,348.1711,183.6753,352.1106,187.7349,348.051,191.6744,357.11,187.81" style="stroke:#DC2626;stroke-width:1;"/><text fill="#000000" font-family="sans-serif" font-size="13" lengthAdjust="spacing" textLength="61.1851" x="264.24" y="183.0669">&#171;extend&#187;</text></g><g class="legend" data-source-line="40"><rect fill="#DDDDDD" height="62.8906" rx="7.5" ry="7.5" style="stroke:#000000;stroke-width:1;" width="208.0601" x="303.9899" y="490"/><text fill="#000000" font-family="sans-serif" font-size="14" font-weight="bold" lengthAdjust="spacing" textLength="25.7599" x="313.8639" y="509.9951">&#44288;&#44228;</text><text fill="#000000" font-family="sans-serif" font-size="14" font-weight="bold" lengthAdjust="spacing" textLength="25.7599" x="373.487" y="509.9951">&#51032;&#48120;</text><rect fill="#2563EB" height="16.2969" style="stroke:none;stroke-width:1;" width="59.623" x="308.9899" y="513.2969"/><text fill="#000000" font-family="sans-serif" font-size="14" lengthAdjust="spacing" textLength="50.7227" x="313.4401" y="526.292">include</text><text fill="#000000" font-family="sans-serif" font-size="14" lengthAdjust="spacing" textLength="116.6567" x="373.0631" y="526.292">&#44277;&#53685;/&#54596;&#49688; &#54616;&#50948; &#44592;&#45733;</text><rect fill="#DC2626" height="16.2969" style="stroke:none;stroke-width:1;" width="59.623" x="308.9899" y="529.5938"/><text fill="#000000" font-family="sans-serif" font-size="14" lengthAdjust="spacing" textLength="48.7607" x="313.4401" y="542.5889">extend</text><text fill="#000000" font-family="sans-serif" font-size="14" lengthAdjust="spacing" textLength="129.5367" x="373.0631" y="542.5889">&#51312;&#44148;&#48512;/&#50696;&#50808; &#54869;&#51109; &#44592;&#45733;</text><line style="stroke:#000000;stroke-width:1;" x1="308.9899" x2="507.05" y1="497" y2="497"/><line style="stroke:#000000;stroke-width:1;" x1="308.9899" x2="507.05" y1="513.2969" y2="513.2969"/><line style="stroke:#000000;stroke-width:1;" x1="308.9899" x2="507.05" y1="529.5938" y2="529.5938"/><line style="stroke:#000000;stroke-width:1;" x1="308.9899" x2="507.05" y1="545.8906" y2="545.8906"/><line style="stroke:#000000;stroke-width:1;" x1="308.9899" x2="308.9899" y1="497" y2="545.8906"/><line style="stroke:#000000;stroke-width:1;" x1="368.6129" x2="368.6129" y1="497" y2="545.8906"/><line style="stroke:#000000;stroke-width:1;" x1="507.05" x2="507.05" y1="497" y2="545.8906"/></g><?plantuml-src RPF1Qjj048Rl-nI3Sqw2vLY1uWfIruSUIW-XfzB38cqK4LaAqfesn8Mq4S6K7aABGKbZ4nCIac2eNTkj3taYxUeTihAan18wQMVcctzcPqScsQ50RN0CVPU2PZX4fOPj8NVFiFQnWvkmZzKzh9DjUc0IYCBOqaso1BYxMBC_6POEEzXq2K9OfRO39VvjoC_lUF-q1DY5UikbTfCuQJIO7h6ROHhTqfg6XT2JF9JUEHfntkfq-y2bf5c2GmJGSecANH7anr_3dnrWztTiq0C-68NdFnOwx-lb0avyk3VFSbA6wm-3oMKMg6I0gmSs50h7FUwD4s2Z25XMg1O1_s_vIGh8HNVwDHPtIe1DLDJbw3OOnMDxKow8iycC_qxYHRTa_uxuO0pyhoyUO84riZAzAVkJTifEBo1jVIb1GbyGIfyKLbULnUHp3YdlgEGT6tb7DU-G4LhiHc9kPgnongeW91HXxSEAL9KhZLSVrnGn87W1jPfXgMPB8ueY23b7I3aY5NbTbsH9Zf16B48-Ks9fpnfBW9G5a4bqSOf_AZ7QzaiGwnvClEZ4UtuqtdRahoMDA93KXpO4arbuCbiFknxl-11sVNxXGJ0ViU_NQL9SMO6ueCWHQnUCf-9XrxdVuMTp2C-wl7_zd2QmkAT7?></g></svg>